# xmcd CD database file
#
# Track frame offsets:
#	150
#	41735
#	68410
#	101087
#	129030
#	175615
#	209950
#	241085
#
# Disc length: 3586 seconds
#
# Revision: 0
# Processed by: cddbd v1.5.2PL0 Copyright (c) Steve Scherf et al.
# Submitted via: CDex 1.70beta2
#
DISCID=660e0008
DTITLE=Andreas Mayerhofer Group - Andreas Mayerhofer Group feat. Peter O'Mara
DYEAR=1991
DGENRE=Jazz
TTITLE0=sunday afternoon (Mayerhofer)
TTITLE1=good news (Mayerhofer)
TTITLE2=fast update (Mayerhofer)
TTITLE3=the poet (Mayerhofer)
TTITLE4=sounds for freedom (O'Mara)
TTITLE5=rhythm changes (Mayerhofer)
TTITLE6=love labyrinth (Mayerhofer)
TTITLE7=summer '89 (Vollbauer)
EXTD=YEAR: 1991
EXTT0=
EXTT1=
EXTT2=
EXTT3=
EXTT4=
EXTT5=
EXTT6=
EXTT7=
PLAYORDER=
